<svg xmlns="http://www.w3.org/2000/svg" width="100" height="100" viewBox="0 0 100 100"><title>Vector</title><circle cx="50.00" cy="50.00" r="45.00" fill="none" stroke="#0FA89C" stroke-width="2"></circle><line x1="50.00" y1="13.00" x2="50.00" y2="7.00" stroke="#0FA89C" stroke-width="2.2" stroke-linecap="round"></line><line x1="54.18" y1="10.22" x2="54.49" y2="7.24" stroke="#9FDDD6" stroke-width="1.1" stroke-linecap="round"></line><line x1="58.32" y1="10.87" x2="58.94" y2="7.94" stroke="#9FDDD6" stroke-width="1.1" stroke-linecap="round"></line><line x1="62.36" y1="11.96" x2="63.29" y2="9.10" stroke="#9FDDD6" stroke-width="1.1" stroke-linecap="round"></line><line x1="66.27" y1="13.46" x2="67.49" y2="10.72" stroke="#9FDDD6" stroke-width="1.1" stroke-linecap="round"></line><line x1="68.50" y1="17.96" x2="71.50" y2="12.76" stroke="#0FA89C" stroke-width="2.2" stroke-linecap="round"></line><line x1="73.51" y1="17.64" x2="75.27" y2="15.21" stroke="#9FDDD6" stroke-width="1.1" stroke-linecap="round"></line><line x1="76.77" y1="20.27" x2="78.77" y2="18.04" stroke="#9FDDD6" stroke-width="1.1" stroke-linecap="round"></line><line x1="79.73" y1="23.23" x2="81.96" y2="21.23" stroke="#9FDDD6" stroke-width="1.1" stroke-linecap="round"></line><line x1="82.36" y1="26.49" x2="84.79" y2="24.73" stroke="#9FDDD6" stroke-width="1.1" stroke-linecap="round"></line><line x1="82.04" y1="31.50" x2="87.24" y2="28.50" stroke="#0FA89C" stroke-width="2.2" stroke-linecap="round"></line><line x1="86.54" y1="33.73" x2="89.28" y2="32.51" stroke="#9FDDD6" stroke-width="1.1" stroke-linecap="round"></line><line x1="88.04" y1="37.64" x2="90.90" y2="36.71" stroke="#9FDDD6" stroke-width="1.1" stroke-linecap="round"></line><line x1="89.13" y1="41.68" x2="92.06" y2="41.06" stroke="#9FDDD6" stroke-width="1.1" stroke-linecap="round"></line><line x1="89.78" y1="45.82" x2="92.76" y2="45.51" stroke="#9FDDD6" stroke-width="1.1" stroke-linecap="round"></line><line x1="87.00" y1="50.00" x2="93.00" y2="50.00" stroke="#0FA89C" stroke-width="2.2" stroke-linecap="round"></line><line x1="89.78" y1="54.18" x2="92.76" y2="54.49" stroke="#9FDDD6" stroke-width="1.1" stroke-linecap="round"></line><line x1="89.13" y1="58.32" x2="92.06" y2="58.94" stroke="#9FDDD6" stroke-width="1.1" stroke-linecap="round"></line><line x1="88.04" y1="62.36" x2="90.90" y2="63.29" stroke="#9FDDD6" stroke-width="1.1" stroke-linecap="round"></line><line x1="86.54" y1="66.27" x2="89.28" y2="67.49" stroke="#9FDDD6" stroke-width="1.1" stroke-linecap="round"></line><line x1="82.04" y1="68.50" x2="87.24" y2="71.50" stroke="#0FA89C" stroke-width="2.2" stroke-linecap="round"></line><line x1="82.36" y1="73.51" x2="84.79" y2="75.27" stroke="#9FDDD6" stroke-width="1.1" stroke-linecap="round"></line><line x1="79.73" y1="76.77" x2="81.96" y2="78.77" stroke="#9FDDD6" stroke-width="1.1" stroke-linecap="round"></line><line x1="76.77" y1="79.73" x2="78.77" y2="81.96" stroke="#9FDDD6" stroke-width="1.1" stroke-linecap="round"></line><line x1="73.51" y1="82.36" x2="75.27" y2="84.79" stroke="#9FDDD6" stroke-width="1.1" stroke-linecap="round"></line><line x1="68.50" y1="82.04" x2="71.50" y2="87.24" stroke="#0FA89C" stroke-width="2.2" stroke-linecap="round"></line><line x1="66.27" y1="86.54" x2="67.49" y2="89.28" stroke="#9FDDD6" stroke-width="1.1" stroke-linecap="round"></line><line x1="62.36" y1="88.04" x2="63.29" y2="90.90" stroke="#9FDDD6" stroke-width="1.1" stroke-linecap="round"></line><line x1="58.32" y1="89.13" x2="58.94" y2="92.06" stroke="#9FDDD6" stroke-width="1.1" stroke-linecap="round"></line><line x1="54.18" y1="89.78" x2="54.49" y2="92.76" stroke="#9FDDD6" stroke-width="1.1" stroke-linecap="round"></line><line x1="50.00" y1="87.00" x2="50.00" y2="93.00" stroke="#0FA89C" stroke-width="2.2" stroke-linecap="round"></line><line x1="45.82" y1="89.78" x2="45.51" y2="92.76" stroke="#9FDDD6" stroke-width="1.1" stroke-linecap="round"></line><line x1="41.68" y1="89.13" x2="41.06" y2="92.06" stroke="#9FDDD6" stroke-width="1.1" stroke-linecap="round"></line><line x1="37.64" y1="88.04" x2="36.71" y2="90.90" stroke="#9FDDD6" stroke-width="1.1" stroke-linecap="round"></line><line x1="33.73" y1="86.54" x2="32.51" y2="89.28" stroke="#9FDDD6" stroke-width="1.1" stroke-linecap="round"></line><line x1="31.50" y1="82.04" x2="28.50" y2="87.24" stroke="#0FA89C" stroke-width="2.2" stroke-linecap="round"></line><line x1="26.49" y1="82.36" x2="24.73" y2="84.79" stroke="#9FDDD6" stroke-width="1.1" stroke-linecap="round"></line><line x1="23.23" y1="79.73" x2="21.23" y2="81.96" stroke="#9FDDD6" stroke-width="1.1" stroke-linecap="round"></line><line x1="20.27" y1="76.77" x2="18.04" y2="78.77" stroke="#9FDDD6" stroke-width="1.1" stroke-linecap="round"></line><line x1="17.64" y1="73.51" x2="15.21" y2="75.27" stroke="#9FDDD6" stroke-width="1.1" stroke-linecap="round"></line><line x1="17.96" y1="68.50" x2="12.76" y2="71.50" stroke="#0FA89C" stroke-width="2.2" stroke-linecap="round"></line><line x1="13.46" y1="66.27" x2="10.72" y2="67.49" stroke="#9FDDD6" stroke-width="1.1" stroke-linecap="round"></line><line x1="11.96" y1="62.36" x2="9.10" y2="63.29" stroke="#9FDDD6" stroke-width="1.1" stroke-linecap="round"></line><line x1="10.87" y1="58.32" x2="7.94" y2="58.94" stroke="#9FDDD6" stroke-width="1.1" stroke-linecap="round"></line><line x1="10.22" y1="54.18" x2="7.24" y2="54.49" stroke="#9FDDD6" stroke-width="1.1" stroke-linecap="round"></line><line x1="13.00" y1="50.00" x2="7.00" y2="50.00" stroke="#0FA89C" stroke-width="2.2" stroke-linecap="round"></line><line x1="10.22" y1="45.82" x2="7.24" y2="45.51" stroke="#9FDDD6" stroke-width="1.1" stroke-linecap="round"></line><line x1="10.87" y1="41.68" x2="7.94" y2="41.06" stroke="#9FDDD6" stroke-width="1.1" stroke-linecap="round"></line><line x1="11.96" y1="37.64" x2="9.10" y2="36.71" stroke="#9FDDD6" stroke-width="1.1" stroke-linecap="round"></line><line x1="13.46" y1="33.73" x2="10.72" y2="32.51" stroke="#9FDDD6" stroke-width="1.1" stroke-linecap="round"></line><line x1="17.96" y1="31.50" x2="12.76" y2="28.50" stroke="#0FA89C" stroke-width="2.2" stroke-linecap="round"></line><line x1="17.64" y1="26.49" x2="15.21" y2="24.73" stroke="#9FDDD6" stroke-width="1.1" stroke-linecap="round"></line><line x1="20.27" y1="23.23" x2="18.04" y2="21.23" stroke="#9FDDD6" stroke-width="1.1" stroke-linecap="round"></line><line x1="23.23" y1="20.27" x2="21.23" y2="18.04" stroke="#9FDDD6" stroke-width="1.1" stroke-linecap="round"></line><line x1="26.49" y1="17.64" x2="24.73" y2="15.21" stroke="#9FDDD6" stroke-width="1.1" stroke-linecap="round"></line><line x1="31.50" y1="17.96" x2="28.50" y2="12.76" stroke="#0FA89C" stroke-width="2.2" stroke-linecap="round"></line><line x1="33.73" y1="13.46" x2="32.51" y2="10.72" stroke="#9FDDD6" stroke-width="1.1" stroke-linecap="round"></line><line x1="37.64" y1="11.96" x2="36.71" y2="9.10" stroke="#9FDDD6" stroke-width="1.1" stroke-linecap="round"></line><line x1="41.68" y1="10.87" x2="41.06" y2="7.94" stroke="#9FDDD6" stroke-width="1.1" stroke-linecap="round"></line><line x1="45.82" y1="10.22" x2="45.51" y2="7.24" stroke="#9FDDD6" stroke-width="1.1" stroke-linecap="round"></line><line x1="33.00" y1="42.00" x2="33.00" y2="37.00" stroke="#BCE6E0" stroke-width="1.4" stroke-linecap="round"></line><line x1="40.27" y1="43.45" x2="42.18" y2="38.83" stroke="#BCE6E0" stroke-width="1.4" stroke-linecap="round"></line><line x1="46.44" y1="47.56" x2="49.97" y2="44.03" stroke="#BCE6E0" stroke-width="1.4" stroke-linecap="round"></line><line x1="50.55" y1="53.73" x2="55.17" y2="51.82" stroke="#BCE6E0" stroke-width="1.4" stroke-linecap="round"></line><line x1="52.00" y1="61.00" x2="57.00" y2="61.00" stroke="#BCE6E0" stroke-width="1.4" stroke-linecap="round"></line><line x1="50.55" y1="68.27" x2="55.17" y2="70.18" stroke="#BCE6E0" stroke-width="1.4" stroke-linecap="round"></line><line x1="46.44" y1="74.44" x2="49.97" y2="77.97" stroke="#BCE6E0" stroke-width="1.4" stroke-linecap="round"></line><line x1="40.27" y1="78.55" x2="42.18" y2="83.17" stroke="#BCE6E0" stroke-width="1.4" stroke-linecap="round"></line><line x1="33.00" y1="80.00" x2="33.00" y2="85.00" stroke="#BCE6E0" stroke-width="1.4" stroke-linecap="round"></line><line x1="25.73" y1="78.55" x2="23.82" y2="83.17" stroke="#BCE6E0" stroke-width="1.4" stroke-linecap="round"></line><line x1="19.56" y1="74.44" x2="16.03" y2="77.97" stroke="#BCE6E0" stroke-width="1.4" stroke-linecap="round"></line><line x1="15.45" y1="68.27" x2="10.83" y2="70.18" stroke="#BCE6E0" stroke-width="1.4" stroke-linecap="round"></line><line x1="14.00" y1="61.00" x2="9.00" y2="61.00" stroke="#BCE6E0" stroke-width="1.4" stroke-linecap="round"></line><line x1="15.45" y1="53.73" x2="10.83" y2="51.82" stroke="#BCE6E0" stroke-width="1.4" stroke-linecap="round"></line><line x1="19.56" y1="47.56" x2="16.03" y2="44.03" stroke="#BCE6E0" stroke-width="1.4" stroke-linecap="round"></line><line x1="25.73" y1="43.45" x2="23.82" y2="38.83" stroke="#BCE6E0" stroke-width="1.4" stroke-linecap="round"></line><circle cx="33.00" cy="61.00" r="20.00" fill="none" stroke="#BCE6E0" stroke-width="1.4"></circle><circle cx="33.00" cy="61.00" r="8.40" fill="none" stroke="#BCE6E0" stroke-width="1.2"></circle><line x1="33.00" y1="52.60" x2="33.00" y2="43.00" stroke="#BCE6E0" stroke-width="1.1" stroke-linecap="round"></line><line x1="40.99" y1="58.40" x2="50.12" y2="55.44" stroke="#BCE6E0" stroke-width="1.1" stroke-linecap="round"></line><line x1="37.94" y1="67.80" x2="43.58" y2="75.56" stroke="#BCE6E0" stroke-width="1.1" stroke-linecap="round"></line><line x1="28.06" y1="67.80" x2="22.42" y2="75.56" stroke="#BCE6E0" stroke-width="1.1" stroke-linecap="round"></line><line x1="25.01" y1="58.40" x2="15.88" y2="55.44" stroke="#BCE6E0" stroke-width="1.1" stroke-linecap="round"></line><circle cx="33.00" cy="61.00" r="1.4" fill="#BCE6E0"></circle><line x1="71.00" y1="27.50" x2="71.00" y2="24.40" stroke="#BCE6E0" stroke-width="1.4" stroke-linecap="round"></line><line x1="76.14" y1="29.01" x2="77.81" y2="26.40" stroke="#BCE6E0" stroke-width="1.4" stroke-linecap="round"></line><line x1="79.64" y1="33.05" x2="82.46" y2="31.77" stroke="#BCE6E0" stroke-width="1.4" stroke-linecap="round"></line><line x1="80.40" y1="38.35" x2="83.47" y2="38.79" stroke="#BCE6E0" stroke-width="1.4" stroke-linecap="round"></line><line x1="78.18" y1="43.22" x2="80.52" y2="45.25" stroke="#BCE6E0" stroke-width="1.4" stroke-linecap="round"></line><line x1="73.68" y1="46.12" x2="74.55" y2="49.09" stroke="#BCE6E0" stroke-width="1.4" stroke-linecap="round"></line><line x1="68.32" y1="46.12" x2="67.45" y2="49.09" stroke="#BCE6E0" stroke-width="1.4" stroke-linecap="round"></line><line x1="63.82" y1="43.22" x2="61.48" y2="45.25" stroke="#BCE6E0" stroke-width="1.4" stroke-linecap="round"></line><line x1="61.60" y1="38.35" x2="58.53" y2="38.79" stroke="#BCE6E0" stroke-width="1.4" stroke-linecap="round"></line><line x1="62.36" y1="33.05" x2="59.54" y2="31.77" stroke="#BCE6E0" stroke-width="1.4" stroke-linecap="round"></line><line x1="65.86" y1="29.01" x2="64.19" y2="26.40" stroke="#BCE6E0" stroke-width="1.4" stroke-linecap="round"></line><circle cx="71.00" cy="37.00" r="10.50" fill="none" stroke="#BCE6E0" stroke-width="1.4"></circle><circle cx="71.00" cy="37.00" r="4.41" fill="none" stroke="#BCE6E0" stroke-width="1.2"></circle><line x1="71.00" y1="32.59" x2="71.00" y2="27.55" stroke="#BCE6E0" stroke-width="1.1" stroke-linecap="round"></line><line x1="75.19" y1="35.64" x2="79.99" y2="34.08" stroke="#BCE6E0" stroke-width="1.1" stroke-linecap="round"></line><line x1="73.59" y1="40.57" x2="76.55" y2="44.65" stroke="#BCE6E0" stroke-width="1.1" stroke-linecap="round"></line><line x1="68.41" y1="40.57" x2="65.45" y2="44.65" stroke="#BCE6E0" stroke-width="1.1" stroke-linecap="round"></line><line x1="66.81" y1="35.64" x2="62.01" y2="34.08" stroke="#BCE6E0" stroke-width="1.1" stroke-linecap="round"></line><circle cx="71.00" cy="37.00" r="1.4" fill="#BCE6E0"></circle><g transform="rotate(0 50 50)"><polygon points="50,11 45.6,40 50,50.5" fill="#7FD4CC"></polygon><polygon points="50,11 54.4,40 50,50.5" fill="#0FA89C"></polygon><polygon points="50,85 47.2,60 52.8,60" fill="#7FD4CC"></polygon></g><circle cx="50" cy="50" r="4.1" fill="none" stroke="#0FA89C" stroke-width="2"></circle><circle cx="50" cy="50" r="1.4" fill="#0FA89C"></circle></svg>
